<?xml version="1.0" encoding="UTF-8"?> <svg xmlns="http://www.w3.org/2000/svg" width="130" height="130" viewBox="0 0 130 130" fill="none"> <path d="M88.6362 23.75L112.386 64.8862L88.6362 106.022L41.1362 106.022L17.3862 64.8862L41.1362 23.75L88.6362 23.75Z" fill="#68DCE8"></path> <path d="M33.3125 29.0312C30.9228 29.0312 28.8167 30.196 27.4757 31.9688H26.2155C22.7904 31.9688 19.8514 34.2967 19.0671 37.6293L15.736 51.7866C14.7299 56.0651 14.2188 60.464 14.2188 64.8614C14.2188 67.8444 14.9252 70.7482 16.2544 73.3846C11.7424 74.5067 8.34375 78.7705 8.34375 83.7451V87.5433C8.34375 88.8329 8.55084 90.1077 8.95916 91.3342C10.5939 96.2368 15.1646 99.5312 20.3317 99.5312H75.6683C80.8368 99.5312 85.4061 96.2368 87.0423 91.3327C87.4492 90.1077 87.6562 88.8329 87.6562 87.5433V83.7451C87.6562 78.7705 84.2576 74.5067 79.7456 73.3846C81.0748 70.7467 81.7812 67.8444 81.7812 64.8614C81.7812 60.4654 81.2701 56.0665 80.264 51.7881L76.9329 37.6323C76.1486 34.2967 73.2096 31.9688 69.7845 31.9688H68.5243C67.1819 30.196 65.0757 29.0312 62.6875 29.0312H58.2812V26.0938H59.75C62.1793 26.0938 64.1562 24.1168 64.1562 21.6875V12.875C64.1562 10.4457 62.1793 8.46875 59.75 8.46875H36.25C33.8207 8.46875 31.8438 10.4457 31.8438 12.875V21.6875C31.8438 24.1168 33.8207 26.0938 36.25 26.0938H37.7188V29.0312H33.3125ZM84.7188 83.7451V87.5433C84.7188 88.5171 84.5631 89.4806 84.2561 90.4044C83.0209 94.1072 79.5693 96.5938 75.6683 96.5938H20.3317C16.4307 96.5938 12.9791 94.1072 11.7454 90.4059C11.4369 89.4806 11.2812 88.5171 11.2812 87.5433V83.7451C11.2812 79.6121 14.4743 76.1532 18.3988 76.0357C20.3992 75.9696 22.3013 76.7098 23.7392 78.1037C25.1771 79.499 25.9688 81.3716 25.9688 83.375V86.3125C25.9688 90.3618 29.2632 93.6562 33.3125 93.6562H36.25V90.7188H33.3125C30.8832 90.7188 28.9062 88.7418 28.9062 86.3125V85.6134C32.3372 83.2267 36.4747 81.9062 40.6562 81.9062H55.3438C59.5253 81.9062 63.6628 83.2267 67.0938 85.6134V86.3125C67.0938 88.7418 65.1168 90.7188 62.6875 90.7188H59.75V93.6562H62.6875C66.7368 93.6562 70.0312 90.3618 70.0312 86.3125V83.375C70.0312 81.3716 70.8229 79.499 72.2623 78.1037C73.7002 76.7098 75.6096 75.9725 77.6027 76.0357C81.5257 76.1532 84.7188 79.6121 84.7188 83.7451ZM67.0938 36.375V43.7188H70.0312V36.375C70.0312 35.8756 69.9798 35.3865 69.8829 34.9151C71.8951 34.9606 73.6091 36.3368 74.0718 38.3049L77.4029 52.4622C78.3576 56.5204 78.8423 60.6931 78.8423 64.8614C78.8423 67.793 78.0374 70.6365 76.5275 73.1349C74.1614 73.3302 71.945 74.3143 70.2134 75.996C68.4876 77.6704 67.433 79.8353 67.1643 82.1853C65.6676 81.3158 64.0828 80.6079 62.4349 80.085C61.6417 74.8254 61.2188 69.4792 61.2188 64.1593V34.9062H58.2812V64.1593C58.2812 69.2236 58.6573 74.3099 59.3593 79.3286C58.036 79.0965 56.6921 78.9688 55.3438 78.9688H40.6562C39.3079 78.9688 37.964 79.0965 36.6407 79.3286C37.3428 74.3099 37.7188 69.2236 37.7188 64.1593V34.9062H34.7812V64.1593C34.7812 69.4792 34.3583 74.8254 33.5622 80.085C31.9143 80.6079 30.3295 81.3158 28.8328 82.1853C28.564 79.8353 27.5095 77.6689 25.7837 75.996C24.0506 74.3158 21.8607 73.3434 19.4739 73.1408C17.9611 70.6395 17.1562 67.7945 17.1562 64.8614C17.1562 60.6916 17.6409 56.5189 18.5956 52.4607L21.9268 38.3035C22.3894 36.3368 24.1049 34.9606 26.1156 34.9151C26.0202 35.3865 25.9688 35.8756 25.9688 36.375V43.7188H28.9062V36.375C28.9062 33.9457 30.8832 31.9688 33.3125 31.9688H62.6875C65.1168 31.9688 67.0938 33.9457 67.0938 36.375ZM34.7812 21.6875V12.875C34.7812 12.0642 35.4393 11.4062 36.25 11.4062H59.75C60.5607 11.4062 61.2188 12.0642 61.2188 12.875V21.6875C61.2188 22.4982 60.5607 23.1562 59.75 23.1562H36.25C35.4393 23.1562 34.7812 22.4982 34.7812 21.6875ZM40.6562 26.0938H55.3438V29.0312H40.6562V26.0938Z" fill="#333333"></path> <path d="M92.0626 15.8125C88.8225 15.8125 86.1876 13.1776 86.1876 9.9375C86.1876 9.12528 85.5311 8.46875 84.7189 8.46875C83.9066 8.46875 83.2501 9.12528 83.2501 9.9375C83.2501 13.1776 80.6152 15.8125 77.3751 15.8125C76.5629 15.8125 75.9062 16.469 75.9062 17.2812C75.9062 18.0935 76.5629 18.75 77.3751 18.75C80.6152 18.75 83.2501 21.3849 83.2501 24.625C83.2501 25.4372 83.9066 26.0938 84.7189 26.0938C85.5311 26.0938 86.1876 25.4372 86.1876 24.625C86.1876 21.3849 88.8225 18.75 92.0626 18.75C92.8748 18.75 93.5312 18.0935 93.5312 17.2812C93.5312 16.469 92.8748 15.8125 92.0626 15.8125ZM84.7189 19.759C84.0667 18.7779 83.2222 17.9334 82.2411 17.2812C83.2222 16.6291 84.0667 15.7846 84.7189 14.8035C85.371 15.7846 86.2155 16.6291 87.1966 17.2812C86.2155 17.9334 85.371 18.7779 84.7189 19.759Z" fill="#333333"></path> <path d="M18.625 29.0312C15.3849 29.0312 12.75 26.3963 12.75 23.1562C12.75 22.344 12.0935 21.6875 11.2812 21.6875C10.469 21.6875 9.8125 22.344 9.8125 23.1562C9.8125 26.3963 7.17756 29.0312 3.9375 29.0312C3.12528 29.0312 2.46875 29.6878 2.46875 30.5C2.46875 31.3122 3.12528 31.9688 3.9375 31.9688C7.17756 31.9688 9.8125 34.6037 9.8125 37.8438C9.8125 38.656 10.469 39.3125 11.2812 39.3125C12.0935 39.3125 12.75 38.656 12.75 37.8438C12.75 34.6037 15.3849 31.9688 18.625 31.9688C19.4372 31.9688 20.0938 31.3122 20.0938 30.5C20.0938 29.6878 19.4372 29.0312 18.625 29.0312ZM11.2812 32.9778C10.6291 31.9967 9.78459 31.1521 8.80347 30.5C9.78459 29.8479 10.6291 29.0033 11.2812 28.0222C11.9334 29.0033 12.7779 29.8479 13.759 30.5C12.7779 31.1521 11.9334 31.9967 11.2812 32.9778Z" fill="#333333"></path> </svg> 