<?xml version="1.0" encoding="UTF-8"?> <svg xmlns="http://www.w3.org/2000/svg" width="130" height="130" viewBox="0 0 130 130" fill="none"> <path d="M88.6362 23.75L112.386 64.8862L88.6362 106.022L41.1362 106.022L17.3862 64.8862L41.1362 23.75L88.6362 23.75Z" fill="#68DCE8"></path> <path d="M105.164 44.912H90.1094V41.0259C90.1094 40.0119 89.2872 39.1899 88.2734 39.1899H48.6172C47.6034 39.1899 46.7812 40.0119 46.7812 41.0259C46.7812 42.0399 47.6034 42.8618 48.6172 42.8618H86.4375V56.9372C86.4375 69.3019 79.836 80.7938 69.1764 87.0466H33.933C23.2734 80.7939 16.6719 69.3019 16.6719 56.9374V42.862H28.9727C29.9865 42.862 30.8086 42.0401 30.8086 41.0261C30.8086 40.0121 29.9865 39.1901 28.9727 39.1901H14.8359C13.8221 39.1901 13 40.0121 13 41.0261V56.9374C13 63.8772 14.8653 70.682 18.3944 76.6155C20.7743 80.6173 23.8623 84.1511 27.4786 87.0468H14.8359C13.8221 87.0468 13 87.8687 13 88.8827C13 95.5642 18.4357 101 25.1172 101H82.3984C89.08 101 94.5156 95.5642 94.5156 88.8827C94.5156 87.8687 93.6935 87.0468 92.6797 87.0468H75.6308C78.9592 84.3817 81.8385 81.1749 84.1316 77.561H89.3139C99.066 77.561 107 69.627 107 59.8749V46.7479C107 45.734 106.178 44.912 105.164 44.912ZM90.6427 90.7186C89.8022 94.4955 86.4248 97.328 82.3984 97.328H25.1172C21.0908 97.328 17.7136 94.4955 16.8729 90.7186H33.4411H69.6682H90.6427ZM90.1094 56.9374V55.9276H95.9844V59.8749C95.9844 63.553 92.992 66.5454 89.3139 66.5454H88.8969C89.6983 63.4232 90.1094 60.1953 90.1094 56.9374ZM103.328 59.8749C103.328 67.6024 97.0413 73.8892 89.3139 73.8892H86.1891C86.7753 72.6919 87.2989 71.4663 87.7564 70.2173H89.3139C95.0168 70.2173 99.6562 65.5777 99.6562 59.8749V54.0917C99.6562 53.0777 98.8341 52.2558 97.8203 52.2558H90.1094V48.5839H103.328V59.8749Z" fill="#333333"></path> <path d="M53.3078 17.1607L52.3526 15.9613C50.9503 14.201 50.9483 11.7403 52.3476 9.9774C52.9781 9.18318 52.8452 8.02837 52.0509 7.39809C51.2565 6.76745 50.1019 6.90055 49.4714 7.69478C47.0036 10.8041 47.0073 15.1441 49.4804 18.249L50.4357 19.4485C52.2681 21.7489 52.2709 24.9645 50.4423 27.2684L49.4634 28.5018C48.8329 29.2961 48.9658 30.4509 49.7601 31.0811C50.0977 31.349 50.5003 31.4792 50.9002 31.4792C51.441 31.4792 51.977 31.2412 52.3395 30.7844L53.3185 29.5511C56.2156 25.9009 56.2114 20.8058 53.3078 17.1607Z" fill="#333333"></path> <path d="M63.4841 21.2881L62.5289 20.0889C61.1266 18.3284 61.1246 15.8677 62.5239 14.1048C63.1544 13.3106 63.0215 12.1558 62.2272 11.5255C61.4328 10.8949 60.2782 11.028 59.6477 11.8222C57.1799 14.9316 57.1835 19.2715 59.6567 22.3767L60.612 23.5761C62.4442 25.8767 62.447 29.0925 60.6184 31.3963L59.6397 32.6295C59.0092 33.4237 59.1421 34.5785 59.9364 35.2088C60.274 35.4766 60.6766 35.6066 61.0765 35.6066C61.6173 35.6066 62.1534 35.3685 62.5158 34.9119L63.4944 33.6787C66.3917 30.0287 66.3875 24.9336 63.4841 21.2881Z" fill="#333333"></path> <path d="M43.1313 21.2886L42.1761 20.0894C40.7738 18.3291 40.7717 15.8682 42.1709 14.1053C42.8014 13.3111 42.6685 12.1563 41.8742 11.5258C41.0798 10.8954 39.9252 11.0287 39.2947 11.8225C36.8271 14.9319 36.8307 19.272 39.3039 22.377L40.2592 23.5764C42.0914 25.877 42.0942 29.0928 40.2658 31.3964L39.2868 32.6296C38.6564 33.4238 38.7891 34.5786 39.5833 35.2091C39.921 35.4769 40.3234 35.6071 40.7235 35.6071C41.2643 35.6071 41.8002 35.3692 42.1627 34.9126L43.1418 33.6792C46.0389 30.0291 46.0346 24.9341 43.1313 21.2886Z" fill="#333333"></path> <path d="M40.5905 39.7274C40.249 39.3859 39.7753 39.1895 39.2925 39.1895C38.8096 39.1895 38.336 39.3859 37.9945 39.7274C37.6532 40.0707 37.4565 40.5425 37.4565 41.0254C37.4565 41.5082 37.653 41.9819 37.9945 42.3252C38.336 42.6667 38.8096 42.8613 39.2925 42.8613C39.7753 42.8613 40.249 42.6667 40.5905 42.3252C40.9336 41.9819 41.1284 41.5101 41.1284 41.0254C41.1284 40.5425 40.9336 40.0689 40.5905 39.7274Z" fill="#333333"></path> <path d="M79.461 55.1016C78.4472 55.1016 77.6251 55.9235 77.6251 56.9375C77.6251 63.7523 74.8609 70.4496 70.0412 75.3121C69.3274 76.0322 69.3327 77.1947 70.0528 77.9085C70.4108 78.2634 70.878 78.4406 71.3453 78.4406C71.8178 78.4404 72.2904 78.259 72.6493 77.8968C78.145 72.3522 81.297 64.7129 81.297 56.9375C81.297 55.9235 80.4748 55.1016 79.461 55.1016Z" fill="#333333"></path> <path d="M66.9554 80.2951C66.4572 79.4118 65.3375 79.0999 64.4544 79.598L64.4125 79.6217C63.5292 80.12 63.2174 81.2397 63.7155 82.1228C64.0529 82.7209 64.6751 83.0571 65.3162 83.0571C65.6217 83.0571 65.9316 82.9805 66.2166 82.8199L66.2584 82.7962C67.1417 82.2979 67.4535 81.1782 66.9554 80.2951Z" fill="#333333"></path> </svg> 